<svg viewBox="0 0 31 28" stroke="#BDBDBD" xmlns="http://www.w3.org/2000/svg">
<path d="M8,10.763344h-2.778739l10.82975-6.325378l10.28885,6.325378h-2.2955L24,22c0,.5304-.2107,1.0391-.5858,1.4142s-.8838.5858-1.4142.5858h-12c-.53043,0-1.03914-.2107-1.41421-.5858s-.58579-.8838-.58579-1.4142v-11.236656" transform="translate(-.051011-1.224266)" fill="none" stroke-width="2" stroke-linecap="round" stroke-linejoin="round"/>
<path d="M19,4h-6c-.5523,0-1,.44772-1,1v2c0,.55228.4477,1,1,1h6c.5523,0,1-.44772,1-1v-2c0-.55228-.4477-1-1-1Z" transform="translate(-.27045 8)" fill="none" stroke-width="2" stroke-linecap="round" stroke-linejoin="round"/>
</svg>