<svg width="30" height="30" viewBox="0 0 30 30" fill="none" stroke="#BDBDBD" xmlns="http://www.w3.org/2000/svg">
<path d="M15 16C15.5523 16 16 15.5523 16 15C16 14.4477 15.5523 14 15 14C14.4477 14 14 14.4477 14 15C14 15.5523 14.4477 16 15 16Z" stroke-width="2" stroke-linecap="round" stroke-linejoin="round"/>
<path d="M15 9C15.5523 9 16 8.55228 16 8C16 7.44772 15.5523 7 15 7C14.4477 7 14 7.44772 14 8C14 8.55228 14.4477 9 15 9Z" stroke-width="2" stroke-linecap="round" stroke-linejoin="round"/>
<path d="M15 23C15.5523 23 16 22.5523 16 22C16 21.4477 15.5523 21 15 21C14.4477 21 14 21.4477 14 22C14 22.5523 14.4477 23 15 23Z" stroke-width="2" stroke-linecap="round" stroke-linejoin="round"/>
</svg>