<svg width="16" height="16" viewBox="0 0 16 16" fill="none" xmlns="http://www.w3.org/2000/svg">
<path d="M9.75 12.7422V13.0886C9.75 14.0551 8.9665 14.8386 8 14.8386C7.0335 14.8386 6.25 14.0551 6.25 13.0886V12.7422" stroke="#4C5057" stroke-width="1.5"/>
<path d="M3.8 6.63359C3.8 4.314 5.6804 2.43359 8 2.43359V2.43359C10.3196 2.43359 12.2 4.314 12.2 6.63359V9.60012C12.2 9.61382 12.2039 9.62722 12.2113 9.63876L13.3811 11.4666C13.6488 11.8848 13.3484 12.4336 12.8519 12.4336H3.14812C2.65159 12.4336 2.35124 11.8848 2.6189 11.4666L3.7887 9.63876C3.79608 9.62722 3.8 9.61382 3.8 9.60012V6.63359Z" stroke="#4C5057" stroke-width="1.5" stroke-linejoin="round"/>
<path d="M8 1V2.12903" stroke="#4C5057" stroke-width="1.5" stroke-linecap="round"/>
</svg>
