<svg viewBox="0 0 31 28" stroke="#BDBDBD" xmlns="http://www.w3.org/2000/svg">
<path d="M21.302454,2.169466c0,.5304.156349,16.434641.156349,16.434641s-4.363769-4.448469-4.363769-4.448469-8.73767.102564-8.73767.102564-.066953-7.038559-.066953-7.038559l8.73767-.102565l4.27437-4.94761" transform="matrix(1.033905 0.010925-.009835 0.930733-1.688892 2.897461)" fill="none" stroke-width="2" stroke-linecap="round" stroke-linejoin="round"/>
<path d="M17.755974,3.187499l3.133044-2.073437" transform="matrix(1.033905 0.010925-.009835 0.930733 4.150202 6.546898)" fill="none" stroke-width="2" stroke-linecap="round" stroke-linejoin="round"/>
<path d="M17.835473,3.466635l3.053269-.035839" transform="matrix(1.033905 0.010925-.009835 0.930733 4.173273 9.018241)" fill="none" stroke-width="2" stroke-linecap="round" stroke-linejoin="round"/>
<path d="M17.770562,1.802507l3.154004,2.203567" transform="matrix(1.033905 0.010925-.009835 0.930733 4.121499 13.362082)" fill="none" stroke-width="2" stroke-linecap="round" stroke-linejoin="round"/>
<path d="M17.770562,1.802507l1.960662,7.202878l4.10547-.04819-1.8549-7.204118" transform="matrix(1.033905 0.010925-.009835 0.930733-11.504056 14.468012)" fill="none" stroke-width="2" stroke-linecap="round" stroke-linejoin="round"/>
</svg>