<svg width="31" height="28" viewBox="0 0 31 28" fill="none" stroke="#BDBDBD" xmlns="http://www.w3.org/2000/svg" style="margin-top:1px; margin-bottom:1px;">
<path d="M20 6H22C22.5304 6 23.0391 6.21071 23.4142 6.58579C23.7893 6.96086 24 7.46957 24 8V22C24 22.5304 23.7893 23.0391 23.4142 23.4142C23.0391 23.7893 22.5304 24 22 24H10C9.46957 24 8.96086 23.7893 8.58579 23.4142C8.21071 23.0391 8 22.5304 8 22V8C8 7.46957 8.21071 6.96086 8.58579 6.58579C8.96086 6.21071 9.46957 6 10 6H12" stroke-width="2" stroke-linecap="round" stroke-linejoin="round"/>
<path d="M19 4H13C12.4477 4 12 4.44772 12 5V7C12 7.55228 12.4477 8 13 8H19C19.5523 8 20 7.55228 20 7V5C20 4.44772 19.5523 4 19 4Z" stroke-width="2" stroke-linecap="round" stroke-linejoin="round"/>
</svg>