<svg width="32" height="32" viewBox="0 0 32 32" fill="none" xmlns="http://www.w3.org/2000/svg">
<path d="M5 13L14.6536 4.21164C15.4168 3.51689 16.5832 3.51689 17.3464 4.21164L27 13" stroke="#333333" stroke-width="2" stroke-linecap="round"/>
<path d="M17.3696 21.4953L16.7146 20.7397L17.3696 21.4953ZM27 13.147L28 13.147C28 12.7554 27.7715 12.3999 27.4153 12.2373C27.0591 12.0747 26.6408 12.1349 26.345 12.3914L27 13.147ZM14.6304 21.4953L13.9754 22.2509L13.9754 22.2509L14.6304 21.4953ZM5 13.147L5.65502 12.3914C5.35917 12.1349 4.94085 12.0747 4.58468 12.2373C4.22851 12.3999 4 12.7554 4 13.147H5ZM27 26H26H27ZM18.0246 22.2509L27.655 13.9026L26.345 12.3914L16.7146 20.7397L18.0246 22.2509ZM13.9754 22.2509C15.1276 23.2497 16.8724 23.2497 18.0246 22.2509L16.7146 20.7397C16.3142 21.0868 15.6859 21.0868 15.2854 20.7397L13.9754 22.2509ZM4.34498 13.9026L13.9754 22.2509L15.2854 20.7397L5.65502 12.3914L4.34498 13.9026ZM6 26V13.147H4V26H6ZM7 27C6.44772 27 6 26.5523 6 26H4C4 27.6569 5.34314 29 7 29V27ZM25 27H7V29H25V27ZM26 26C26 26.5523 25.5523 27 25 27V29C26.6569 29 28 27.6569 28 26H26ZM26 13.147L26 26H28L28 13.147L26 13.147Z" fill="#333333"/>
</svg>
