<svg width="24" height="21" viewBox="0 0 24 21" fill="none" xmlns="http://www.w3.org/2000/svg">
<path d="M8.75691 16L9.46401 15.2929C9.27648 15.1054 9.02212 15 8.75691 15V16ZM11.5351 18.7782L10.828 19.4853L11.5351 18.7782ZM12.9493 18.7782L12.2422 18.0711L12.2422 18.0711L12.9493 18.7782ZM15.7275 16V15C15.4623 15 15.2079 15.1054 15.0204 15.2929L15.7275 16ZM2 5C2 3.34315 3.34315 2 5 2V0C2.23858 0 0 2.23858 0 5H2ZM2 12V5H0V12H2ZM5 15C3.34315 15 2 13.6569 2 12H0C0 14.7614 2.23858 17 5 17V15ZM8.75691 15H5V17H8.75691V15ZM12.2422 18.0711L9.46401 15.2929L8.0498 16.7071L10.828 19.4853L12.2422 18.0711ZM12.2422 18.0711H12.2422L10.828 19.4853C11.609 20.2663 12.8754 20.2663 13.6564 19.4853L12.2422 18.0711ZM15.0204 15.2929L12.2422 18.0711L13.6564 19.4853L16.4346 16.7071L15.0204 15.2929ZM19 15H15.7275V17H19V15ZM22 12C22 13.6569 20.6569 15 19 15V17C21.7614 17 24 14.7614 24 12H22ZM22 5V12H24V5H22ZM19 2C20.6569 2 22 3.34315 22 5H24C24 2.23858 21.7614 0 19 0V2ZM5 2H19V0H5V2Z" fill="#333333"/>
<circle cx="6.5" cy="8.5" r="1.5" fill="#333333"/>
<circle cx="12" cy="8.5" r="1.5" fill="#333333"/>
<circle cx="17.5" cy="8.5" r="1.5" fill="#333333"/>
</svg>
