<svg width="173" height="93" viewBox="0 0 173 93" fill="none" xmlns="http://www.w3.org/2000/svg">
<path d="M77.117 32.858V26.4038H48.0881V32.858H53.0729V50.1672H60.1102V32.858H77.117Z" fill="#FF601C"/>
<path d="M48.0881 53.6877V60.142H78.2898V53.6877H72.7186V35.7918H65.6814V53.6877H48.0881Z" fill="#FF601C"/>
<path d="M21.4051 0L4.69153 16.7224L9.67627 21.7098L21.4051 9.97476L32.8407 21.4164L37.8254 16.429L21.4051 0Z" fill="#FF601C"/>
<path d="M0 32.858V26.4038H18.1797V46.0599H11.1424V32.858H0Z" fill="#FF601C"/>
<path d="M42.5169 32.858V26.4038H24.3373V54.2744H31.3746V32.858H42.5169Z" fill="#FF601C"/>
<path d="M101.454 48.9937L96.4695 44.0063L115.822 24.6435L135.175 44.0063L130.19 48.9937L115.822 34.6183L101.454 48.9937Z" fill="#060606"/>
<path d="M96.1763 60.7287V53.6877H135.761V60.7287H96.1763Z" fill="#060606"/>
<path d="M146.61 33.1514V26.1104H170.361V48.9937H162.737V44.2997H146.61V38.1388H162.737V33.1514H146.61Z" fill="#060606"/>
<path d="M141.625 58.6751V51.9274H173V58.6751H161.564V63.6625H170.361V81.265H151.888V86.2524H170.361V93H145.144V75.1041H163.91V69.8233H145.144V63.6625H154.527V58.6751H141.625Z" fill="#060606"/>
<path d="M77.117 46.0599V39.6057H83.5678V26.4038H90.6051V63.3691H83.5678V46.0599H77.117Z" fill="#FF601C"/>
<path d="M64.0457 3.39648H58.5752V2.61719H64.0457V3.39648ZM61.313 3.81177C61.7539 3.81177 62.1418 3.88184 62.4768 4.02197C62.8118 4.15869 63.0732 4.35352 63.2612 4.60645C63.4492 4.85596 63.5432 5.14819 63.5432 5.48315C63.5432 5.8147 63.4492 6.10693 63.2612 6.35986C63.0732 6.60938 62.8118 6.8042 62.4768 6.94434C62.1418 7.08105 61.7539 7.14941 61.313 7.14941C60.8789 7.14941 60.491 7.08105 60.1492 6.94434C59.8074 6.8042 59.5425 6.60938 59.3545 6.35986C59.1699 6.10693 59.0776 5.8147 59.0776 5.48315C59.0776 5.14819 59.1699 4.85596 59.3545 4.60645C59.5425 4.35352 59.8074 4.15869 60.1492 4.02197C60.491 3.88184 60.8789 3.81177 61.313 3.81177ZM61.313 4.55518C61.0566 4.55518 60.8293 4.59277 60.6311 4.66797C60.4329 4.74316 60.2808 4.85083 60.1748 4.99097C60.0688 5.1311 60.0159 5.29517 60.0159 5.48315C60.0159 5.66772 60.0688 5.82837 60.1748 5.96509C60.2808 6.10181 60.4329 6.20605 60.6311 6.27783C60.8293 6.34961 61.0566 6.3855 61.313 6.3855C61.5693 6.3855 61.7966 6.34961 61.9949 6.27783C62.1965 6.20605 62.3521 6.10181 62.4614 5.96509C62.5708 5.82837 62.6255 5.66772 62.6255 5.48315C62.6255 5.29517 62.5708 5.1311 62.4614 4.99097C62.3521 4.85083 62.1965 4.74316 61.9949 4.66797C61.7966 4.59277 61.5693 4.55518 61.313 4.55518ZM65.7837 7.4314H64.8147V1.67896H65.7837V7.4314ZM67.1218 4.98071H65.512V4.17578H67.1218V4.98071ZM65.7837 10.8665H64.8147V8.68237H59.7134V7.89795H65.7837V10.8665ZM61.8 3.04785H60.8311V1.63794H61.8V3.04785ZM74.1226 3.35547H68.201V2.56592H74.1226V3.35547ZM75.7171 9.62573H67.3396V8.82593H75.7171V9.62573ZM70.2876 9.11304H69.3187V5.84717H70.2876V9.11304ZM74.7994 3.54517C74.7994 4.0647 74.7942 4.51074 74.784 4.8833C74.7737 5.25244 74.743 5.67456 74.6917 6.14966C74.6438 6.62134 74.5687 7.12891 74.4661 7.67236L73.5125 7.56982C73.615 7.05371 73.6885 6.56494 73.733 6.10352C73.7808 5.63867 73.8099 5.22339 73.8201 4.85767C73.8304 4.48853 73.8355 4.05103 73.8355 3.54517V2.56592H74.7994V3.54517ZM72.5691 9.11304H71.6155V5.84717H72.5691V9.11304ZM84.5123 6.64697H76.1041V5.89844H84.5123V6.64697ZM83.4767 9.31299H78.0831V10.3076H77.109V8.66699H82.5128V7.99023H77.0987V7.28271H83.4767V9.31299ZM83.7638 10.7588H77.109V10.0718H83.7638V10.7588ZM83.451 3.90918H78.1498V4.83716H77.1859V3.26318H82.4769V2.60693H77.1603V1.91992H83.451V3.90918ZM83.6151 5.29346H77.1859V4.61157H83.6151V5.29346ZM90.8388 7.6416H89.8698V5.95483H90.8388V7.6416ZM89.5571 8.31323H93.7817V7.38525H94.7404V10.7537H88.5932V7.38525H89.5571V8.31323ZM93.7817 9.96924V9.06689H89.5571V9.96924H93.7817ZM94.7404 6.96997H93.7714V1.68921H94.7404V6.96997ZM87.1628 5.65747C88.4035 5.65747 89.4973 5.64209 90.444 5.61133C91.3908 5.58057 92.3034 5.5105 93.1818 5.40112L93.2434 6.09326C92.341 6.24365 91.4147 6.34106 90.4646 6.3855C89.5144 6.42651 88.4565 6.44702 87.291 6.44702L87.1628 5.65747ZM90.5568 2.34033C90.5568 2.78809 90.4526 3.20166 90.2441 3.58105C90.039 3.95703 89.7434 4.28174 89.3571 4.55518C88.9709 4.82861 88.5129 5.03027 87.9831 5.16016L87.5473 4.40137C87.9951 4.29883 88.3864 4.14673 88.7214 3.94507C89.0598 3.73999 89.3178 3.50073 89.4956 3.22729C89.6767 2.95044 89.7673 2.65479 89.7673 2.34033V1.90967H90.5568V2.34033ZM90.767 2.34033C90.767 2.63086 90.8559 2.90771 91.0336 3.1709C91.2148 3.43066 91.4711 3.65625 91.8027 3.84766C92.1342 4.03906 92.5239 4.18091 92.9716 4.27319L92.5512 5.01147C92.0317 4.89526 91.5771 4.71069 91.1875 4.45776C90.8012 4.20483 90.5021 3.89893 90.2902 3.54004C90.0817 3.17773 89.9775 2.77783 89.9775 2.34033V1.90967H90.767V2.34033ZM102.751 3.35547H96.8091V2.56592H102.751V3.35547ZM104.305 9.62573H95.9272V8.82593H104.305V9.62573ZM100.075 9.24121H99.1162V5.58569H100.075V9.24121ZM103.361 3.46826C103.361 4.01172 103.354 4.46802 103.341 4.83716C103.327 5.20288 103.296 5.63696 103.249 6.1394C103.201 6.63843 103.124 7.17847 103.018 7.75952L102.028 7.65186C102.141 7.10156 102.223 6.58203 102.274 6.09326C102.326 5.60449 102.356 5.17212 102.367 4.79614C102.38 4.41675 102.387 3.97412 102.387 3.46826V2.56592H103.361V3.46826ZM114.415 10.8665H113.446V1.67896H114.415V10.8665ZM115.553 6.03174H113.871V5.21143H115.553V6.03174ZM107.934 4.82178H108.898V2.5249H109.713V8.67725H107.109V2.5249H107.934V4.82178ZM108.898 7.87231V5.59595H107.934V7.87231H108.898ZM110.98 4.82178H111.923V2.5249H112.738V8.67725H110.165V2.5249H110.98V4.82178ZM111.923 7.87231V5.59595H110.98V7.87231H111.923ZM124.148 9.74878H115.74V8.94385H124.148V9.74878ZM123.118 5.22681H117.735V6.98535H116.766V4.44238H122.159V3.15039H116.75V2.35571H123.118V5.22681ZM123.333 7.35449H116.766V6.58032H123.333V7.35449ZM132.41 10.8665H131.488V1.67896H132.41V10.8665ZM129.79 6.15991H127.55V5.37549H129.79V6.15991ZM130.472 10.4255H129.55V1.91479H130.472V10.4255ZM128.498 2.82739C128.498 3.67847 128.382 4.47314 128.15 5.21143C127.921 5.94629 127.55 6.62646 127.037 7.25195C126.525 7.87744 125.86 8.42944 125.043 8.90796L124.484 8.21069C125.195 7.79028 125.778 7.31689 126.232 6.79053C126.687 6.26074 127.022 5.68311 127.237 5.05762C127.453 4.42871 127.56 3.74683 127.56 3.01196V2.82739H128.498ZM127.904 3.62207H124.915V2.82739H127.904V3.62207ZM134.115 12.1226H133.249L133.792 9.29248H134.946L134.115 12.1226ZM140.99 10.928H140.016V7.1853H140.99V10.928ZM144.276 10.928H143.307V7.1853H144.276V10.928ZM146.338 7.67236H137.929V6.87769H146.338V7.67236ZM142.482 2.48901C142.482 3.06323 142.315 3.59131 141.98 4.07324C141.645 4.55518 141.192 4.95679 140.621 5.27808C140.05 5.59937 139.418 5.81812 138.724 5.93433L138.334 5.13452C138.929 5.04907 139.478 4.87646 139.98 4.6167C140.483 4.35693 140.882 4.03906 141.18 3.66309C141.477 3.28711 141.626 2.89575 141.626 2.48901V1.9917H142.482V2.48901ZM142.636 2.48901C142.636 2.89233 142.786 3.28198 143.087 3.65796C143.388 4.03052 143.789 4.34839 144.292 4.61157C144.794 4.87476 145.341 5.04907 145.932 5.13452L145.553 5.93433C144.866 5.81812 144.235 5.59766 143.661 5.27295C143.09 4.94482 142.636 4.5415 142.297 4.06299C141.959 3.58105 141.79 3.0564 141.79 2.48901V1.9917H142.636V2.48901ZM152.051 3.40161H146.93V2.59668H152.051V3.40161ZM147.083 7.84155C148.085 7.83472 149.018 7.81421 149.883 7.78003C150.751 7.74585 151.561 7.68774 152.313 7.60571L152.374 8.31323C151.54 8.44995 150.652 8.54053 149.708 8.58496C148.768 8.62939 147.781 8.65161 146.745 8.65161L146.653 7.84155H147.083ZM148.775 8.05688H147.827V3.23242H148.775V8.05688ZM151.041 8.05688H150.103V3.23242H151.041V8.05688ZM154.379 10.8665H153.41V1.67896H154.379V10.8665ZM154.087 5.90356H151.744V5.10889H154.087V5.90356ZM159.985 2.98633C159.985 3.62891 159.813 4.23218 159.467 4.79614C159.126 5.35669 158.669 5.83179 158.099 6.22144C157.528 6.61108 156.904 6.8811 156.227 7.03149L155.791 6.21631C156.376 6.1001 156.925 5.88135 157.437 5.56006C157.95 5.23877 158.36 4.85083 158.668 4.39624C158.975 3.94165 159.129 3.47168 159.129 2.98633V2.29932H159.985V2.98633ZM160.154 2.98633C160.154 3.46826 160.31 3.93823 160.621 4.39624C160.932 4.85425 161.346 5.24561 161.862 5.57031C162.378 5.8916 162.926 6.10693 163.508 6.21631L163.072 7.03149C162.402 6.8811 161.781 6.61279 161.211 6.22656C160.64 5.84033 160.182 5.36523 159.837 4.80127C159.491 4.2373 159.319 3.63232 159.319 2.98633V2.29932H160.154V2.98633ZM163.897 9.66162H155.489V8.85669H163.897V9.66162ZM171.257 2.82739H165.315V2.06348H171.257V2.82739ZM168.924 7.22119H167.965V5.89331H168.924V7.22119ZM171.605 2.77612C171.605 3.30249 171.59 3.77417 171.559 4.19116C171.529 4.60815 171.453 5.07812 171.334 5.60107L170.38 5.48828C170.496 4.98242 170.568 4.53296 170.595 4.13989C170.623 3.74683 170.636 3.29224 170.636 2.77612V2.06348H171.605V2.77612ZM165.207 4.50391L165.089 3.73999L170.939 3.59131V4.26294L165.207 4.50391ZM172.631 6.06763H164.279V5.29346H172.631V6.06763ZM171.667 9.16431H166.217V10.3127H165.253V8.44653H170.698V7.67749H165.238V6.92896H171.667V9.16431ZM171.99 10.7537H165.253V9.98462H171.99V10.7537Z" fill="#333333"/>
</svg>
