<svg width="145" height="48" viewBox="0 0 145 48" fill="none" xmlns="http://www.w3.org/2000/svg">
<path d="M39.2271 16.959V13.6278H24.461V16.959H26.9966V25.8927H30.5763V16.959H39.2271Z" fill="#FF7F22"/>
<path d="M24.461 27.7098V31.041H39.8237V27.7098H36.9898V18.4732H33.4102V27.7098H24.461Z" fill="#FF7F22"/>
<path d="M10.8881 0L2.38644 8.63091L4.92203 11.205L10.8881 5.14826L16.7051 11.0536L19.2407 8.4795L10.8881 0Z" fill="#FF7F22"/>
<path d="M0 16.959V13.6278H9.24746V23.7729H5.6678V16.959H0Z" fill="#FF7F22"/>
<path d="M21.6271 16.959V13.6278H12.3797V28.0126H15.9593V16.959H21.6271Z" fill="#FF7F22"/>
<path d="M51.6068 25.2871L49.0712 22.7129L58.9153 12.7192L68.7593 22.7129L66.2237 25.2871L58.9153 17.8675L51.6068 25.2871Z" fill="#060606"/>
<path d="M48.922 31.3438V27.7098H69.0576V31.3438H48.922Z" fill="#060606"/>
<path d="M74.5763 17.1104V13.4763H86.6576V25.2871H82.7797V22.8644H74.5763V19.6845H82.7797V17.1104H74.5763Z" fill="#060606"/>
<path d="M72.0407 30.2839V26.8013H88V30.2839H82.1831V32.858H86.6576V41.9432H77.261V44.5173H86.6576V48H73.8305V38.7634H83.3763V36.0379H73.8305V32.858H78.6034V30.2839H72.0407Z" fill="#060606"/>
<path d="M39.2271 23.7729V20.4416H42.5085V13.6278H46.0881V32.7066H42.5085V23.7729H39.2271Z" fill="#FF7F22"/>
<path d="M98.72 25V23.208L98.64 22.872V19.816C98.64 19.1653 98.448 18.664 98.064 18.312C97.6907 17.9493 97.1253 17.768 96.368 17.768C95.8667 17.768 95.376 17.8533 94.896 18.024C94.416 18.184 94.0107 18.4027 93.68 18.68L93.04 17.528C93.4773 17.176 94 16.9093 94.608 16.728C95.2267 16.536 95.872 16.44 96.544 16.44C97.7067 16.44 98.6027 16.7227 99.232 17.288C99.8613 17.8533 100.176 18.7173 100.176 19.88V25H98.72ZM95.936 25.096C95.3067 25.096 94.752 24.9893 94.272 24.776C93.8027 24.5627 93.44 24.2693 93.184 23.896C92.928 23.512 92.8 23.08 92.8 22.6C92.8 22.1413 92.9067 21.7253 93.12 21.352C93.344 20.9787 93.7013 20.68 94.192 20.456C94.6933 20.232 95.3653 20.12 96.208 20.12H98.896V21.224H96.272C95.504 21.224 94.9867 21.352 94.72 21.608C94.4533 21.864 94.32 22.1733 94.32 22.536C94.32 22.952 94.4853 23.288 94.816 23.544C95.1467 23.7893 95.6053 23.912 96.192 23.912C96.768 23.912 97.2693 23.784 97.696 23.528C98.1333 23.272 98.448 22.8987 98.64 22.408L98.944 23.464C98.7413 23.9653 98.384 24.3653 97.872 24.664C97.36 24.952 96.7147 25.096 95.936 25.096ZM106.523 25.096C105.701 25.096 104.965 24.9147 104.315 24.552C103.675 24.1893 103.168 23.6827 102.795 23.032C102.421 22.3813 102.235 21.624 102.235 20.76C102.235 19.896 102.421 19.144 102.795 18.504C103.168 17.8533 103.675 17.3467 104.315 16.984C104.965 16.6213 105.701 16.44 106.523 16.44C107.237 16.44 107.883 16.6 108.459 16.92C109.035 17.24 109.493 17.72 109.835 18.36C110.187 19 110.363 19.8 110.363 20.76C110.363 21.72 110.192 22.52 109.851 23.16C109.52 23.8 109.067 24.2853 108.491 24.616C107.915 24.936 107.259 25.096 106.523 25.096ZM106.651 23.752C107.184 23.752 107.664 23.6293 108.091 23.384C108.528 23.1387 108.869 22.792 109.115 22.344C109.371 21.8853 109.499 21.3573 109.499 20.76C109.499 20.152 109.371 19.6293 109.115 19.192C108.869 18.744 108.528 18.3973 108.091 18.152C107.664 17.9067 107.184 17.784 106.651 17.784C106.107 17.784 105.621 17.9067 105.195 18.152C104.768 18.3973 104.427 18.744 104.171 19.192C103.915 19.6293 103.787 20.152 103.787 20.76C103.787 21.3573 103.915 21.8853 104.171 22.344C104.427 22.792 104.768 23.1387 105.195 23.384C105.621 23.6293 106.107 23.752 106.651 23.752ZM109.547 25V22.712L109.642 20.744L109.483 18.776V13.128H111.019V25H109.547ZM124.533 16.44C125.215 16.44 125.818 16.5733 126.341 16.84C126.863 17.1067 127.269 17.512 127.557 18.056C127.855 18.6 128.005 19.288 128.005 20.12V25H126.469V20.296C126.469 19.4747 126.277 18.856 125.893 18.44C125.509 18.024 124.97 17.816 124.277 17.816C123.765 17.816 123.317 17.9227 122.933 18.136C122.549 18.3493 122.25 18.664 122.037 19.08C121.834 19.496 121.733 20.0133 121.733 20.632V25H120.197V20.296C120.197 19.4747 120.005 18.856 119.621 18.44C119.247 18.024 118.709 17.816 118.005 17.816C117.503 17.816 117.061 17.9227 116.677 18.136C116.293 18.3493 115.994 18.664 115.781 19.08C115.567 19.496 115.461 20.0133 115.461 20.632V25H113.925V16.52H115.397V18.776L115.157 18.2C115.423 17.6453 115.834 17.2133 116.389 16.904C116.943 16.5947 117.589 16.44 118.325 16.44C119.135 16.44 119.834 16.6427 120.421 17.048C121.007 17.4427 121.391 18.0453 121.573 18.856L120.949 18.6C121.205 17.9493 121.653 17.4267 122.293 17.032C122.933 16.6373 123.679 16.44 124.533 16.44ZM130.831 25V16.52H132.367V25H130.831ZM131.599 14.888C131.3 14.888 131.05 14.792 130.847 14.6C130.655 14.408 130.559 14.1733 130.559 13.896C130.559 13.608 130.655 13.368 130.847 13.176C131.05 12.984 131.3 12.888 131.599 12.888C131.898 12.888 132.143 12.984 132.335 13.176C132.538 13.3573 132.639 13.5867 132.639 13.864C132.639 14.152 132.543 14.3973 132.351 14.6C132.159 14.792 131.908 14.888 131.599 14.888ZM139.828 16.44C140.521 16.44 141.129 16.5733 141.652 16.84C142.185 17.1067 142.601 17.512 142.9 18.056C143.198 18.6 143.348 19.288 143.348 20.12V25H141.812V20.296C141.812 19.4747 141.609 18.856 141.204 18.44C140.809 18.024 140.249 17.816 139.524 17.816C138.98 17.816 138.505 17.9227 138.1 18.136C137.694 18.3493 137.38 18.664 137.156 19.08C136.942 19.496 136.836 20.0133 136.836 20.632V25H135.3V16.52H136.772V18.808L136.532 18.2C136.809 17.6453 137.236 17.2133 137.812 16.904C138.388 16.5947 139.06 16.44 139.828 16.44Z" fill="#0066FF"/>
</svg>
