<svg width="20" height="20" viewBox="0 0 20 20" fill="none" xmlns="http://www.w3.org/2000/svg">
<g id="heroicons-outline:save">
<path id="Vector" d="M6.66667 5.8335H4.16667C3.72464 5.8335 3.30072 6.00909 2.98816 6.32165C2.67559 6.63421 2.5 7.05814 2.5 7.50016V15.0002C2.5 15.4422 2.67559 15.8661 2.98816 16.1787C3.30072 16.4912 3.72464 16.6668 4.16667 16.6668H15.8333C16.2754 16.6668 16.6993 16.4912 17.0118 16.1787C17.3244 15.8661 17.5 15.4422 17.5 15.0002V7.50016C17.5 7.05814 17.3244 6.63421 17.0118 6.32165C16.6993 6.00909 16.2754 5.8335 15.8333 5.8335H13.3333M12.5 9.16683L10 11.6668M10 11.6668L7.5 9.16683M10 11.6668V3.3335" stroke="#FC7900" stroke-width="2" stroke-linecap="round" stroke-linejoin="round"/>
</g>
</svg>
