<svg width="16" height="16" viewBox="0 0 16 16" fill="none" xmlns="http://www.w3.org/2000/svg">
<path d="M3.40625 6.76008H12.5937M4.0625 14H11.9375C12.6624 14 13.25 13.444 13.25 12.7581V4.74194C13.25 4.05603 12.6624 3.5 11.9375 3.5H4.0625C3.33763 3.5 2.75 4.05603 2.75 4.74194V12.7581C2.75 13.444 3.33763 14 4.0625 14Z" stroke="#4C5057" stroke-width="1.5" stroke-linecap="round" stroke-linejoin="round"/>
<path d="M5.5 1.75V2.75M10.5 1.75V2.75" stroke="#4C5057" stroke-width="1.5" stroke-linecap="round"/>
<path d="M6.15624 9.75C6.15624 10.1642 5.82045 10.5 5.40624 10.5C4.99203 10.5 4.65625 10.1642 4.65625 9.75C4.65625 9.33579 4.99203 9 5.40624 9C5.82045 9 6.15624 9.33579 6.15624 9.75Z" fill="#4C5057"/>
<path d="M8.74997 9.75C8.74997 10.1642 8.41419 10.5 7.99998 10.5C7.58577 10.5 7.24998 10.1642 7.24998 9.75C7.24998 9.33579 7.58577 9 7.99998 9C8.41419 9 8.74997 9.33579 8.74997 9.75Z" fill="#4C5057"/>
<path d="M11.3437 9.75C11.3437 10.1642 11.0079 10.5 10.5937 10.5C10.1795 10.5 9.84371 10.1642 9.84371 9.75C9.84371 9.33579 10.1795 9 10.5937 9C11.0079 9 11.3437 9.33579 11.3437 9.75Z" fill="#4C5057"/>
</svg>
