<svg width="37" height="37" viewBox="0 0 37 37" fill="none" xmlns="http://www.w3.org/2000/svg">
<path d="M1.43149 28.0001L11.1983 18.0001C11.8494 17.3335 13.5423 16.4001 15.105 18.0001C16.6676 19.6001 22.2673 25.3335 24.8717 28.0001" stroke="#8D95A1" stroke-width="2"/>
<path d="M21.4534 23.5L25.1974 19.7306C25.74 19.1793 27.1507 18.4074 28.453 19.7306C29.7552 21.0537 30.5148 21.2948 32.6852 23.5" stroke="#8D95A1" stroke-width="2"/>
<path d="M28.7785 4H36.5919" stroke="#8D95A1" stroke-width="2"/>
<path d="M32.6852 8L32.6852 0" stroke="#8D95A1" stroke-width="2"/>
<path d="M21.6544 4H7.43149C4.11778 4 1.43149 6.68629 1.43149 10V30C1.43149 33.3137 4.11778 36 7.43148 36H26.6851C29.9988 36 32.6851 33.3137 32.6851 30V15.2941" stroke="#8D95A1" stroke-width="2"/>
<rect x="19.9884" y="11" width="1.95335" height="2" fill="#8D95A1"/>
</svg>
