<svg width="20" height="20" viewBox="0 0 20 20" fill="none" xmlns="http://www.w3.org/2000/svg">
<g clip-path="url(#clip0)">
<path d="M17.0004 12.8996C15.9221 11.8213 14.6386 11.0231 13.2383 10.5399C14.7381 9.50695 15.7234 7.7782 15.7234 5.82341C15.7234 2.66752 13.1559 0.0999756 9.99998 0.0999756C6.84408 0.0999756 4.27654 2.66752 4.27654 5.82341C4.27654 7.7782 5.26186 9.50695 6.76167 10.5399C5.36136 11.0231 4.07792 11.8213 2.99963 12.8996C1.12977 14.7695 0.0999756 17.2556 0.0999756 19.9H1.64685C1.64685 15.294 5.39404 11.5469 9.99998 11.5469C14.6059 11.5469 18.3531 15.294 18.3531 19.9H19.9C19.9 17.2556 18.8702 14.7695 17.0004 12.8996ZM9.99998 9.99998C7.69703 9.99998 5.82341 8.1264 5.82341 5.82341C5.82341 3.52043 7.69703 1.64685 9.99998 1.64685C12.3029 1.64685 14.1765 3.52043 14.1765 5.82341C14.1765 8.1264 12.3029 9.99998 9.99998 9.99998Z" fill="#CED4DA"/>
</g>
<defs>
<clipPath id="clip0">
<rect width="19.8" height="19.8" fill="white" transform="translate(0.0999756 0.0999756)"/>
</clipPath>
</defs>
</svg>
