<svg width="16" height="16" viewBox="0 0 16 16" fill="none" xmlns="http://www.w3.org/2000/svg">
<path d="M8.00005 0C3.58582 0 0 3.59732 0 8.00904C0.0362328 12.3663 3.45971 15.8735 7.80205 16H8.25218C12.5947 15.8734 16 12.3656 16 8.00904C16 3.59732 12.415 0 8.00005 0ZM2.43259 3.34423C3.29733 2.31365 4.34252 1.57253 5.53197 1.15645L6.07268 0.975364L5.74866 1.42703C5.55077 1.6983 5.35218 2.07795 5.1543 2.43942C5.01006 2.78272 4.83029 3.16238 4.72158 3.52454L4.68535 3.65109L2.18034 3.65179L2.43259 3.34423ZM0.793013 7.43019C0.882901 6.34507 1.1895 5.33262 1.71209 4.4468L1.76644 4.35661H4.46928L4.41492 4.57334C4.21703 5.4592 4.09091 6.43519 4.05468 7.44826V7.62935H0.774782L0.793013 7.43019ZM1.71209 11.5161C1.18948 10.6848 0.883595 9.63605 0.793013 8.5145L0.774896 8.31593H4.05408V8.49702C4.09032 9.5276 4.21644 10.468 4.41432 11.3719L4.46868 11.5887H1.76584L1.71209 11.5161ZM5.53195 14.8253C4.3425 14.3736 3.29808 13.6318 2.43257 12.6375L2.18032 12.3299H4.6666L4.70284 12.4564C4.82896 12.8179 4.99131 13.1975 5.15296 13.5415C5.33343 13.9575 5.53133 14.2827 5.72922 14.5176L6.19748 15.0601L5.53195 14.8253ZM7.69411 15.2588L7.44186 15.1504C6.8656 14.8973 6.28866 14.2464 5.80229 13.2522C5.7124 13.0355 5.63993 12.8362 5.51381 12.6013L5.38769 12.3482H7.69416L7.69411 15.2588ZM7.69411 11.6427H5.20729L5.17106 11.5161C4.93694 10.6484 4.7927 9.6899 4.75647 8.56907V8.38799H7.69352L7.69411 11.6427ZM7.69411 7.62939H4.73904V7.4483C4.77528 6.32753 4.91951 5.35073 5.15364 4.50125L5.18987 4.3747H7.67615V7.62943L7.69411 7.62939ZM7.69411 3.63364H5.42385L5.49562 3.39871C5.54997 3.2358 5.62174 3.10925 5.67609 2.96452C5.71232 2.87433 5.74786 2.80161 5.78409 2.7296V2.71142C6.25234 1.71719 6.81118 1.08445 7.42367 0.813243L7.67592 0.704871V3.63367L7.69411 3.63364ZM8.39649 0.722918L8.64874 0.831291C9.26123 1.10257 9.82006 1.73533 10.2883 2.72947C10.3782 2.94621 10.4507 3.14547 10.5768 3.3804L10.7029 3.63351H8.39644L8.39649 0.722918ZM8.39649 4.33903H10.8828L10.919 4.46558C11.1531 5.33327 11.2974 6.29181 11.3336 7.41263V7.59372L8.39654 7.59302L8.39649 4.33903ZM8.39649 8.3704H11.3335V8.55148C11.2973 9.67226 11.1531 10.6491 10.9189 11.4985L10.8827 11.6251H8.39643L8.39649 8.3704ZM8.64874 15.114L8.39649 15.2224V12.3116H10.6667L10.595 12.5466C10.5051 12.7997 10.4326 13.0528 10.2884 13.2338C9.82013 14.2099 9.26123 14.8427 8.64874 15.114ZM13.658 12.6375C12.7933 13.6317 11.7481 14.3728 10.5587 14.8253L10.0542 15.0238L10.3427 14.5722C10.5406 14.2471 10.7392 13.9213 10.9552 13.5598C11.0994 13.2165 11.2792 12.8368 11.3879 12.4747L11.4241 12.3481H13.9104L13.658 12.6375ZM15.3339 8.56908C15.1896 9.6542 14.8837 10.684 14.4148 11.5525L14.3604 11.6427H11.6576L11.7119 11.4259C11.9098 10.5401 12.036 9.56408 12.0722 8.551V8.36992H15.3514L15.3339 8.56908ZM14.3785 4.4475C14.9192 5.44173 15.2251 6.45414 15.2614 7.43089V7.61197L12.0004 7.61127V7.43019C11.9642 6.3996 11.838 5.4418 11.6401 4.55527L11.5858 4.33853H14.3248L14.3785 4.4475ZM13.9103 3.63365H11.4235L11.3872 3.5071C11.2611 3.14564 11.0987 2.76598 10.9371 2.42198C10.7929 2.09687 10.595 1.77105 10.3427 1.42775L9.98249 0.957908L10.5413 1.15648C11.7489 1.57248 12.7934 2.31361 13.6407 3.34426L13.9103 3.63365Z" fill="black"/>
</svg>
